<svg width="1280" height="720" viewBox="0 0 1280 720" fill="none" xmlns="http://www.w3.org/2000/svg" role="img" aria-labelledby="title desc">
  <title id="title">Product Plate landing page preview</title>
  <desc id="desc">A preview of the Product Plate landing page with the tagline Ship the product, not the setup and a dashboard window.</desc>
  <defs>
    <linearGradient id="bg" x1="0" y1="0" x2="1" y2="1">
      <stop offset="0" stop-color="#fbfaf7"/>
      <stop offset="1" stop-color="#f3f1eb"/>
    </linearGradient>
    <pattern id="grid" width="42" height="42" patternUnits="userSpaceOnUse">
      <path d="M 42 0 L 0 0 0 42" fill="none" stroke="#e7e3d8" stroke-width="1" opacity="0.65"/>
    </pattern>
    <filter id="shadow" x="-20%" y="-20%" width="140%" height="150%">
      <feDropShadow dx="0" dy="24" stdDeviation="26" flood-color="#181817" flood-opacity="0.12"/>
    </filter>
    <filter id="softShadow" x="-20%" y="-20%" width="140%" height="150%">
      <feDropShadow dx="0" dy="10" stdDeviation="14" flood-color="#181817" flood-opacity="0.10"/>
    </filter>
  </defs>

  <rect width="1280" height="720" fill="url(#bg)"/>
  <rect width="1280" height="720" fill="url(#grid)" opacity="0.58"/>

  <rect x="0.5" y="0.5" width="1279" height="77" fill="#fbfaf7" stroke="#ddd8cc"/>
  <g transform="translate(80 28)">
    <rect width="34" height="34" rx="9" fill="#181817"/>
    <rect x="8" y="8" width="15" height="15" rx="4" fill="#fbfaf7"/>
    <path d="M13 13h7a5 5 0 0 1 0 10h-7V13Z" fill="#181817"/>
    <rect x="16" y="16" width="13" height="13" rx="4" fill="#fbfaf7" stroke="#181817" stroke-width="2.5"/>
    <text x="48" y="24" font-family="Inter, ui-sans-serif, system-ui, -apple-system, BlinkMacSystemFont, Segoe UI, sans-serif" font-size="18" font-weight="700" fill="#181817">Product Plate</text>
  </g>
  <g font-family="Inter, ui-sans-serif, system-ui, -apple-system, BlinkMacSystemFont, Segoe UI, sans-serif" font-size="14" fill="#68645c">
    <text x="445" y="50">Features</text>
    <text x="535" y="50">Demo routes</text>
    <text x="650" y="50">Open source</text>
    <text x="770" y="50">FAQ</text>
    <text x="1022" y="50" fill="#181817">Sign in</text>
  </g>
  <g transform="translate(1085 28)">
    <rect width="118" height="34" rx="10" fill="#181817"/>
    <text x="16" y="22" font-family="Inter, ui-sans-serif, system-ui, -apple-system, BlinkMacSystemFont, Segoe UI, sans-serif" font-size="14" font-weight="650" fill="#fbfaf7">Start building</text>
    <path d="M101 12l6 6-6 6M89 18h18" stroke="#fbfaf7" stroke-width="1.8" stroke-linecap="round" stroke-linejoin="round"/>
  </g>

  <g transform="translate(82 185)">
    <rect x="0" y="0" width="181" height="28" rx="9" fill="#fbfaf7" stroke="#d8d3c7"/>
    <text x="13" y="19" font-family="Inter, ui-sans-serif, system-ui, -apple-system, BlinkMacSystemFont, Segoe UI, sans-serif" font-size="13" font-weight="650" fill="#181817">⚡ Svelte 5 SaaS foundation</text>
    <text x="0" y="108" font-family="Inter, ui-sans-serif, system-ui, -apple-system, BlinkMacSystemFont, Segoe UI, sans-serif" font-size="72" font-weight="800" letter-spacing="-4" fill="#181817">Ship the</text>
    <text x="0" y="186" font-family="Inter, ui-sans-serif, system-ui, -apple-system, BlinkMacSystemFont, Segoe UI, sans-serif" font-size="72" font-weight="800" letter-spacing="-4" fill="#181817">product, not</text>
    <text x="0" y="264" font-family="Inter, ui-sans-serif, system-ui, -apple-system, BlinkMacSystemFont, Segoe UI, sans-serif" font-size="72" font-weight="800" letter-spacing="-4" fill="#181817">the setup.</text>
    <text x="0" y="322" font-family="Inter, ui-sans-serif, system-ui, -apple-system, BlinkMacSystemFont, Segoe UI, sans-serif" font-size="21" line-height="32" fill="#6b665c">A production-minded SvelteKit starter with auth,</text>
    <text x="0" y="354" font-family="Inter, ui-sans-serif, system-ui, -apple-system, BlinkMacSystemFont, Segoe UI, sans-serif" font-size="21" fill="#6b665c">billing, realtime data, AI, and a serious component</text>
    <text x="0" y="386" font-family="Inter, ui-sans-serif, system-ui, -apple-system, BlinkMacSystemFont, Segoe UI, sans-serif" font-size="21" fill="#6b665c">system. Built for founders who want to ship.</text>

    <g transform="translate(0 436)">
      <rect width="136" height="42" rx="10" fill="#181817"/>
      <text x="22" y="27" font-family="Inter, ui-sans-serif, system-ui, -apple-system, BlinkMacSystemFont, Segoe UI, sans-serif" font-size="15" font-weight="700" fill="#fbfaf7">Start building</text>
      <path d="M116 16l6 6-6 6M105 22h17" stroke="#fbfaf7" stroke-width="1.8" stroke-linecap="round" stroke-linejoin="round"/>
    </g>
    <g transform="translate(152 436)">
      <rect width="147" height="42" rx="10" fill="#fbfaf7" stroke="#d8d3c7"/>
      <text x="42" y="27" font-family="Inter, ui-sans-serif, system-ui, -apple-system, BlinkMacSystemFont, Segoe UI, sans-serif" font-size="15" font-weight="700" fill="#181817">View on GitHub</text>
    </g>
    <g transform="translate(0 520)" font-family="Inter, ui-sans-serif, system-ui, -apple-system, BlinkMacSystemFont, Segoe UI, sans-serif" font-size="15" fill="#6b665c">
      <text x="0" y="0">✓ MIT licensed</text>
      <text x="136" y="0">✓ Bun-native</text>
      <text x="268" y="0">✓ Type-safe</text>
    </g>
  </g>

  <g transform="translate(565 182)" filter="url(#shadow)">
    <rect x="0" y="0" width="596" height="470" rx="28" fill="#ece9df" opacity="0.62"/>
    <rect x="38" y="22" width="540" height="420" rx="18" fill="#fbfaf7" stroke="#d7d2c7"/>
    <rect x="38" y="22" width="540" height="47" rx="18" fill="#fbfaf7"/>
    <path d="M38 69h540" stroke="#d7d2c7"/>
    <circle cx="58" cy="45" r="5" fill="#d8d3c7"/>
    <circle cx="73" cy="45" r="5" fill="#d8d3c7"/>
    <circle cx="88" cy="45" r="5" fill="#d8d3c7"/>
    <text x="236" y="49" font-family="Inter, ui-sans-serif, system-ui, -apple-system, BlinkMacSystemFont, Segoe UI, sans-serif" font-size="12" fill="#6b665c">productplate.pages.dev/dashboard</text>

    <rect x="38" y="70" width="155" height="372" fill="#f7f5ee"/>
    <path d="M193 70v372" stroke="#d7d2c7"/>
    <g transform="translate(58 90)">
      <rect width="25" height="25" rx="7" fill="#181817"/>
      <text x="34" y="17" font-family="Inter, ui-sans-serif, system-ui, -apple-system, BlinkMacSystemFont, Segoe UI, sans-serif" font-size="13" font-weight="800" fill="#181817">Plate Inc.</text>
    </g>
    <rect x="56" y="145" width="118" height="34" rx="9" fill="#ece9df"/>
    <text x="91" y="167" font-family="Inter, ui-sans-serif, system-ui, -apple-system, BlinkMacSystemFont, Segoe UI, sans-serif" font-size="12" fill="#181817">Overview</text>
    <text x="91" y="204" font-family="Inter, ui-sans-serif, system-ui, -apple-system, BlinkMacSystemFont, Segoe UI, sans-serif" font-size="12" fill="#6b665c">Customers</text>
    <text x="91" y="241" font-family="Inter, ui-sans-serif, system-ui, -apple-system, BlinkMacSystemFont, Segoe UI, sans-serif" font-size="12" fill="#6b665c">Assistant</text>
    <text x="91" y="278" font-family="Inter, ui-sans-serif, system-ui, -apple-system, BlinkMacSystemFont, Segoe UI, sans-serif" font-size="12" fill="#6b665c">Settings</text>

    <g transform="translate(215 94)">
      <text x="0" y="20" font-family="Inter, ui-sans-serif, system-ui, -apple-system, BlinkMacSystemFont, Segoe UI, sans-serif" font-size="18" font-weight="800" fill="#181817">Overview</text>
      <text x="0" y="42" font-family="Inter, ui-sans-serif, system-ui, -apple-system, BlinkMacSystemFont, Segoe UI, sans-serif" font-size="12" fill="#8a857b">Sunday, June 21</text>
      <rect x="374" y="4" width="43" height="25" rx="12" fill="#ece9df"/>
      <text x="386" y="21" font-family="Inter, ui-sans-serif, system-ui, -apple-system, BlinkMacSystemFont, Segoe UI, sans-serif" font-size="11" font-weight="700" fill="#181817">Live</text>
    </g>

    <g transform="translate(215 150)">
      <rect width="184" height="94" rx="10" fill="#fbfaf7" stroke="#d7d2c7"/>
      <text x="16" y="25" font-family="Inter, ui-sans-serif, system-ui, -apple-system, BlinkMacSystemFont, Segoe UI, sans-serif" font-size="12" fill="#8a857b">Active customers</text>
      <text x="16" y="59" font-family="Inter, ui-sans-serif, system-ui, -apple-system, BlinkMacSystemFont, Segoe UI, sans-serif" font-size="25" font-weight="800" fill="#181817">1,429</text>
      <text x="16" y="81" font-family="Inter, ui-sans-serif, system-ui, -apple-system, BlinkMacSystemFont, Segoe UI, sans-serif" font-size="12" fill="#6b665c">+12.5% this month</text>
    </g>
    <g transform="translate(412 150)">
      <rect width="184" height="94" rx="10" fill="#fbfaf7" stroke="#d7d2c7"/>
      <text x="16" y="25" font-family="Inter, ui-sans-serif, system-ui, -apple-system, BlinkMacSystemFont, Segoe UI, sans-serif" font-size="12" fill="#8a857b">Monthly revenue</text>
      <text x="16" y="59" font-family="Inter, ui-sans-serif, system-ui, -apple-system, BlinkMacSystemFont, Segoe UI, sans-serif" font-size="25" font-weight="800" fill="#181817">$24.8k</text>
      <text x="16" y="81" font-family="Inter, ui-sans-serif, system-ui, -apple-system, BlinkMacSystemFont, Segoe UI, sans-serif" font-size="12" fill="#6b665c">83% of target</text>
    </g>

    <g transform="translate(215 258)">
      <rect width="381" height="158" rx="11" fill="#fbfaf7" stroke="#d7d2c7"/>
      <text x="16" y="28" font-family="Inter, ui-sans-serif, system-ui, -apple-system, BlinkMacSystemFont, Segoe UI, sans-serif" font-size="13" font-weight="800" fill="#181817">Growth</text>
      <text x="306" y="28" font-family="Inter, ui-sans-serif, system-ui, -apple-system, BlinkMacSystemFont, Segoe UI, sans-serif" font-size="11" fill="#8a857b">Last 8 weeks</text>
      <g fill="#494842">
        <rect x="18" y="107" width="37" height="36" rx="6"/>
        <rect x="64" y="91" width="37" height="52" rx="6"/>
        <rect x="110" y="97" width="37" height="46" rx="6"/>
        <rect x="156" y="77" width="37" height="66" rx="6"/>
        <rect x="202" y="84" width="37" height="59" rx="6"/>
        <rect x="248" y="65" width="37" height="78" rx="6"/>
        <rect x="294" y="70" width="37" height="73" rx="6"/>
        <rect x="340" y="50" width="37" height="93" rx="6"/>
      </g>
    </g>
  </g>
</svg>
